<?xml version="1.0" encoding="UTF-8" standalone="no"?>
<!-- Generator: Adobe Illustrator 19.0.0, SVG Export Plug-In . SVG Version: 6.00 Build 0)  -->

<svg
   xmlns:dc="http://purl.org/dc/elements/1.1/"
   xmlns:cc="http://creativecommons.org/ns#"
   xmlns:rdf="http://www.w3.org/1999/02/22-rdf-syntax-ns#"
   xmlns:svg="http://www.w3.org/2000/svg"
   xmlns="http://www.w3.org/2000/svg"
   xmlns:sodipodi="http://sodipodi.sourceforge.net/DTD/sodipodi-0.dtd"
   xmlns:inkscape="http://www.inkscape.org/namespaces/inkscape"
   version="1.1"
   id="Layer_1"
   x="0px"
   y="0px"
   viewBox="0 0 405.604 481.93118"
   xml:space="preserve"
   sodipodi:docname="ferroviario-logo.svg"
   width="405.604"
   height="481.93118"
   inkscape:version="0.92.2 (5c3e80d, 2017-08-06)"><metadata
     id="metadata27"><rdf:RDF><cc:Work
         rdf:about=""><dc:format>image/svg+xml</dc:format><dc:type
           rdf:resource="http://purl.org/dc/dcmitype/StillImage" /><dc:title></dc:title></cc:Work></rdf:RDF></metadata><defs
     id="defs25" /><sodipodi:namedview
     pagecolor="#ffffff"
     bordercolor="#666666"
     borderopacity="1"
     objecttolerance="10"
     gridtolerance="10"
     guidetolerance="10"
     inkscape:pageopacity="0"
     inkscape:pageshadow="2"
     inkscape:window-width="1600"
     inkscape:window-height="837"
     id="namedview23"
     showgrid="false"
     fit-margin-top="0"
     fit-margin-left="0"
     fit-margin-right="0"
     fit-margin-bottom="0"
     inkscape:zoom="0.42140707"
     inkscape:cx="138.92317"
     inkscape:cy="234.38955"
     inkscape:window-x="-8"
     inkscape:window-y="-8"
     inkscape:window-maximized="1"
     inkscape:current-layer="Layer_1" /><style
     type="text/css"
     id="style2">
	.st0{fill-rule:evenodd;clip-rule:evenodd;fill:#FFFFFF;stroke:#000000;stroke-width:8.504;stroke-miterlimit:22.9256;}
	.st1{fill-rule:evenodd;clip-rule:evenodd;}
	.st2{fill-rule:evenodd;clip-rule:evenodd;fill:#FFFFFF;}
	.st3{fill-rule:evenodd;clip-rule:evenodd;fill:#ED1C24;}
	.st4{fill:#F6CF0F;}
</style><g
     id="g18"
     transform="translate(-103.048,-104.2)"
     inkscape:export-filename="G:\Users\suitedoalex\sites\ferroviario-ce-logo-escudo-8.png"
     inkscape:export-xdpi="828.39417"
     inkscape:export-ydpi="828.39417"><polygon
       class="st0"
       points="504.4,212.3 107.3,212.3 107.3,323.6 305.8,579.2 504.4,323.6 "
       id="polygon4"
       style="clip-rule:evenodd;fill:#ffffff;fill-rule:evenodd;stroke:#000000;stroke-width:8.50399971;stroke-miterlimit:22.92560005" /><polygon
       class="st1"
       points="485.7,317.4 125.9,317.4 125.9,231 485.7,231 "
       id="polygon6"
       style="clip-rule:evenodd;fill-rule:evenodd" /><polygon
       class="st2"
       points="206.1,241.8 206.1,252.8 170.7,252.8 170.7,268.1 201.3,268.1 201.3,279.1 170.7,279.1 170.7,306.6 155.9,306.6 155.9,241.8 "
       id="polygon8"
       style="clip-rule:evenodd;fill:#ffffff;fill-rule:evenodd" /><path
       class="st2"
       d="M 342.1,306.6 H 326 l -6.4,-14.7 h -29.3 l -6,14.7 h -15.7 l 28.5,-64.8 h 15.6 z M 314.9,281 304.8,256.9 294.9,281 Z"
       id="path10"
       inkscape:connector-curvature="0"
       style="clip-rule:evenodd;fill:#ffffff;fill-rule:evenodd" /><path
       class="st2"
       d="m 443.3,282.8 14.3,4 c -2.2,7.1 -5.8,12.3 -11,15.8 -5.1,3.4 -11.6,5.1 -19.4,5.1 -9.7,0 -17.7,-2.9 -24,-8.8 -6.3,-5.9 -9.4,-13.9 -9.4,-24.1 0,-10.8 3.2,-19.2 9.4,-25.1 6.3,-6 14.6,-8.9 24.8,-8.9 8.9,0 16.2,2.3 21.8,7 3.3,2.8 5.8,6.7 7.5,11.9 l -14.6,3.1 c -0.9,-3.4 -2.7,-6 -5.4,-8 -2.7,-1.9 -6.1,-2.9 -10,-2.9 -5.4,0 -9.8,1.7 -13.2,5.2 -3.4,3.4 -5.1,9 -5.1,16.8 0,8.2 1.7,14 5,17.5 3.3,3.5 7.6,5.2 13,5.2 3.9,0 7.3,-1.1 10.1,-3.3 2.9,-2.3 4.9,-5.8 6.2,-10.5 z"
       id="path12"
       inkscape:connector-curvature="0"
       style="clip-rule:evenodd;fill:#ffffff;fill-rule:evenodd" /><polygon
       class="st3"
       points="286.6,524 286.6,334.3 139.3,334.3 "
       id="polygon14"
       style="clip-rule:evenodd;fill:#ed1c24;fill-rule:evenodd" /><polygon
       class="st1"
       points="325,334.3 325,524 472.4,334.3 "
       id="polygon16"
       style="clip-rule:evenodd;fill-rule:evenodd" /></g><polygon
     class="st4"
     points="263.1,134.2 288.2,152.5 279,182.3 304.4,164.4 329.7,182.3 320.9,152.5 345.7,134.2 314.2,134.2 304.4,104.2 294.6,134.2 "
     id="polygon20"
     style="fill:#f6cf0f"
     transform="translate(-103.048,-104.2)"
     inkscape:export-filename="G:\Users\suitedoalex\sites\ferroviario-ce-logo-escudo-7.png"
     inkscape:export-xdpi="11.834203"
     inkscape:export-ydpi="11.834203" /></svg>